<svg xmlns="http://www.w3.org/2000/svg" viewBox="0 0 512 512">
  <circle cx="256" cy="256" r="256" fill="#2f5868"/>
  <g fill="#fbf7f0" transform="translate(256 256) scale(0.74) translate(-256 -256)">
    <path opacity="0.45" d="M128 283c70.700 0 128 67.300 128 67.300s-57.300 67.300-128 67.300S0 350.300 0 350.300 57.300 283 128 283z"/>
    <path opacity="0.45" d="M384 283c-70.700 0-128 67.300-128 67.300s57.300 67.300 128 67.300 128-67.300 128-67.300S454.700 283 384 283z"/>
    <path opacity="0.7" d="M213.100 212.300c50 50 42.900 138 42.900 138s-88.100 7.100-138.100-42.900S75 169.300 75 169.300s88.100-7 138.100 43z"/>
    <path opacity="0.7" d="M298.900 212.300c-50 50-42.900 138-42.900 138s88.100 7.100 138.100-42.900 42.900-138.100 42.900-138.100-88.100-7-138.100 43z"/>
    <path d="M323.300 222.300c0 70.700-67.300 128-67.300 128s-67.300-57.300-67.300-128 67.300-128 67.300-128 67.300 57.300 67.300 128z"/>
  </g>
</svg>
